<svg width="188" height="30" viewBox="0 0 188 30" fill="none" xmlns="http://www.w3.org/2000/svg">
<path d="M0.92 29V0.999998H7.48L16.28 27.84L25.12 0.999998H31.64V29H25.24V3.44L16.76 29H15.8L7.32 3.44V29H0.92ZM39.4747 29V0.999998H58.7947V6.56H45.7547V14.6H54.6347V15.4H45.7547V23.44H59.9547V29H39.4747ZM65.8809 29V0.999998H72.4409L81.2409 27.84L90.0809 0.999998H96.6009V29H90.2009V3.44L81.7209 29H80.7609L72.2809 3.44V29H65.8809ZM116.409 29.6C113.635 29.6 111.142 28.9733 108.929 27.72C106.742 26.4667 105.022 24.7333 103.769 22.52C102.542 20.3067 101.929 17.8 101.929 15C101.929 12.2 102.542 9.69333 103.769 7.48C105.022 5.26666 106.742 3.53333 108.929 2.28C111.142 1.02667 113.635 0.399999 116.409 0.399999C118.835 0.399999 121.049 0.919998 123.049 1.96C125.075 2.97333 126.702 4.4 127.929 6.24C129.182 8.08 129.902 10.1467 130.089 12.44H123.609C123.369 11.2667 122.902 10.2533 122.209 9.4C121.542 8.52 120.702 7.84 119.689 7.36C118.702 6.88 117.582 6.64 116.329 6.64C114.809 6.64 113.449 7 112.249 7.72C111.075 8.44 110.155 9.44 109.489 10.72C108.822 11.9733 108.489 13.4 108.489 15C108.489 16.6 108.822 18.04 109.489 19.32C110.155 20.5733 111.075 21.56 112.249 22.28C113.449 22.9733 114.809 23.32 116.329 23.32C117.582 23.32 118.702 23.0933 119.689 22.64C120.702 22.16 121.542 21.4933 122.209 20.64C122.902 19.76 123.369 18.7333 123.609 17.56H130.089C129.902 19.8533 129.182 21.92 127.929 23.76C126.702 25.6 125.075 27.04 123.049 28.08C121.049 29.0933 118.835 29.6 116.409 29.6ZM131.315 29L141.915 0.999998H150.155L160.755 29H153.995L150.995 20.92H140.955L137.915 29H131.315ZM141.235 20.16H150.715L145.995 7.76L141.235 20.16ZM165.412 29V0.999998H176.292C179.812 0.999998 182.586 1.72 184.612 3.16C186.639 4.57333 187.652 6.52 187.652 9C187.652 11.48 186.706 13.44 184.812 14.88C182.946 16.2933 180.386 17 177.132 17H171.812V29H165.412ZM175.572 16.2C177.306 16.2 178.679 15.76 179.692 14.88C180.732 14 181.252 12.84 181.252 11.4C181.252 9.93333 180.732 8.76 179.692 7.88C178.679 7 177.306 6.56 175.572 6.56H171.812V16.2H175.572Z" fill="black"/>
</svg>
